<svg xmlns="http://www.w3.org/2000/svg" viewBox="0 0 50 50"><circle fill="#009BD4" cx="25" cy="25" r="25"/><path fill-rule="evenodd" clip-rule="evenodd" fill="#FFF" stroke="#FFF" stroke-width=".25" stroke-linejoin="round" d="M22.6 25.9l7.5-7.5h0c.4-.4 1.1-.4 1.5 0h0l2.2 2.2c.4.4.4 1.1 0 1.5l-.9.9-9.5 9.5h0l-.1.1h0-1.1 0-.2v.1l-.1-.1h0L18.2 29h0l-2.6-2.6c-.4-.4-.4-1.1 0-1.5l2.2-2.2c.2-.2.5-.3.8-.3.3 0 .6.1.8.3l3.2 3.2h0zm8.2-6.7L23 27.1h0c-.2.2-.5.2-.8 0l-3.7-3.7h0l-2.2 2.2h0l6.3 6.3h0l9.5-9.5.9-.9h0l-2.2-2.3h0z"/><path fill-rule="evenodd" clip-rule="evenodd" fill="#FFF" d="M29.1 14.8v-1.5-.1h-8.6s-.1 0-.1.1v1.5h8.7zm-10.3 0h-7.9c-.6 0-1.2.3-1.7.7-.4.5-.7 1.1-.7 1.7v16.7c0 1.3 1.1 2.4 2.4 2.4h27.5c.6 0 1.3-.3 1.7-.7.5-.5.7-1.1.7-1.7V17.2c0-.6-.3-1.3-.7-1.7-.5-.5-1.1-.7-1.7-.7h-7.9v-1.5c0-.4-.2-.8-.5-1.1v-.1c-.3-.3-.7-.4-1.1-.4h-8.6c-.4 0-.8.2-1.1.5-.3.3-.5.7-.5 1.1.1-.1.1 1.5.1 1.5zm19.7 1.5H10.9c-.2 0-.5.1-.6.3-.2.1-.3.4-.3.6v16.7c0 .5.4.9.9.9h27.5c.5 0 .9-.4.9-.9V17.2c.1-.5-.3-.9-.8-.9z"/></svg>
