<svg xmlns="http://www.w3.org/2000/svg" viewBox="0 0 50 50"><circle fill="#009BD4" cx="25" cy="25" r="25"/><path fill="#FFF" d="M24.3 31.6V33c0 .4.3.7.7.7.4 0 .7-.3.7-.7v-1.5c1-.1 2-.5 2.8-1 1-.7 1.6-1.8 1.6-3 .1-1.2-.6-2.4-1.7-2.9-.5-.3-1.1-.5-1.7-.7l-1-.3V20h.2l1 .3c.3.1.6.2.9.2.3 0 .5-.1.8-.3.2-.2.3-.5.3-.7 0-.3-.1-.5-.4-.6-.8-.5-1.8-.9-2.8-.9v-1.3c0-.4-.3-.7-.7-.7-.4 0-.7.3-.7.7v1.4c-1 .1-2 .4-2.9 1-1 .7-1.5 1.7-1.5 2.9 0 1.1.7 2.1 1.7 2.5.5.3 1.1.5 1.6.6l1 .3v4.1c-.6-.1-1.3-.2-1.9-.4-.5-.2-1-.3-1.6-.4-.3 0-.5.1-.7.3-.2.2-.3.4-.3.7 0 .3.2.6.4.8 1.4.8 2.8 1.1 4.2 1.1zm3.1-4.1c0 .7-.3 1.3-.9 1.6-.3.2-.5.3-.8.4v-3.7c1.1.4 1.7 1 1.7 1.7zm-4.8-5.8c0-.6.3-1.1.8-1.3.3-.2.6-.3.9-.3v3.1c-1.1-.4-1.7-.9-1.7-1.5zM14.9 35c-.3-.4-.9-.4-1.3-.1-.4.3-.4.9-.1 1.3l.1.1c.2.2.4.3.6.3.2 0 .5-.1.6-.3.5-.4.5-.9.1-1.3zM12.7 32.1c-.2-.5-.7-.7-1.2-.5s-.7.7-.5 1.2c0 .1.1.1.1.2.2.3.5.5.8.5.2 0 .3 0 .5-.1.4-.3.5-.9.3-1.3zM11.3 28.7a.8.8 0 00-1.1-.6c-.5.1-.8.6-.6 1.1.1.4.5.7.9.7h.2c.4-.1.7-.6.6-1.2zM17.9 37.3c-.4-.3-1-.1-1.3.3-.2.5-.1 1 .4 1.3.1.1.3.1.4.1.3 0 .6-.2.8-.5.3-.4.1-1-.3-1.2zM21.4 38.7c-.5-.1-1.1.1-1.2.6-.1.5.1 1 .6 1.1H21.1c.5 0 .9-.4.9-.9 0-.3-.3-.7-.6-.8zM10.8 25c0-7.1 5.3-13.2 12.4-14.1L22.1 12c-.4.4-.4 1 0 1.3.2.2.4.3.6.3.2 0 .5-.1.7-.3l2.6-2.6c.4-.4.4-.9 0-1.3l-2.6-2.6c-.4-.3-.9-.3-1.3 0-.4.4-.4.9 0 1.3l1 1c-8 1-14 7.8-14.1 15.9 0 .5.4.9.9.9s.9-.4.9-.9zM37.3 17.9c.2.3.5.4.8.5.2 0 .3 0 .5-.1.4-.3.6-.8.3-1.3-.3-.4-.8-.6-1.3-.3-.4.2-.6.8-.3 1.2zM35.1 15c.2.2.4.3.7.3.5 0 .9-.4.9-.9 0-.2-.1-.5-.3-.6-.3-.4-.9-.4-1.3 0-.4.3-.4.8 0 1.2zM38.7 21.3c.1.5.5.7.9.7h.2c.5-.1.8-.6.7-1.1a.8.8 0 00-1.1-.6c-.5 0-.8.5-.7 1zM28.6 11.3h.3c.4 0 .8-.3.9-.7.1-.5-.2-1-.7-1.1-.5-.1-1 .2-1.1.6-.1.5.2 1 .6 1.2zM32.1 12.7c.1.1.3.1.5.1.5 0 .9-.4.9-.9 0-.3-.2-.6-.4-.8-.4-.2-1-.1-1.2.3-.3.5-.2 1 .2 1.3zM40.1 24.1c-.5 0-.9.4-.9.9 0 7.1-5.3 13.2-12.4 14.1l1.1-1.1c.4-.3.4-.9.1-1.3s-.9-.4-1.3-.1l-.1.1-2.6 2.6c-.4.4-.4.9 0 1.3l2.6 2.6c.2.2.4.3.6.3.2 0 .5-.1.6-.3.4-.4.4-.9 0-1.3l-1-1c8-1 14.1-7.8 14.1-15.9.2-.5-.2-.9-.8-.9.1 0 0 0 0 0z"/></svg>
